<svg width="94" height="102" viewBox="0 0 94 102" fill="none" xmlns="http://www.w3.org/2000/svg">
<path d="M21.1667 72.6667C22.537 72.6667 23.8511 72.1223 24.82 71.1534C25.789 70.1844 26.3333 68.8703 26.3333 67.5C26.3333 66.1297 25.789 64.8156 24.82 63.8466C23.8511 62.8777 22.537 62.3333 21.1667 62.3333C19.7964 62.3333 18.4822 62.8777 17.5133 63.8466C16.5443 64.8156 16 66.1297 16 67.5C16 68.8703 16.5443 70.1844 17.5133 71.1534C18.4822 72.1223 19.7964 72.6667 21.1667 72.6667ZM26.3333 83C26.3333 84.3703 25.789 85.6844 24.82 86.6534C23.8511 87.6223 22.537 88.1667 21.1667 88.1667C19.7964 88.1667 18.4822 87.6223 17.5133 86.6534C16.5443 85.6844 16 84.3703 16 83C16 81.6297 16.5443 80.3156 17.5133 79.3466C18.4822 78.3777 19.7964 77.8333 21.1667 77.8333C22.537 77.8333 23.8511 78.3777 24.82 79.3466C25.789 80.3156 26.3333 81.6297 26.3333 83ZM21.1667 57.1667C22.537 57.1667 23.8511 56.6223 24.82 55.6534C25.789 54.6844 26.3333 53.3703 26.3333 52C26.3333 50.6297 25.789 49.3156 24.82 48.3466C23.8511 47.3777 22.537 46.8333 21.1667 46.8333C19.7964 46.8333 18.4822 47.3777 17.5133 48.3466C16.5443 49.3156 16 50.6297 16 52C16 53.3703 16.5443 54.6844 17.5133 55.6534C18.4822 56.6223 19.7964 57.1667 21.1667 57.1667ZM26.3333 36.5C26.3333 37.8703 25.789 39.1844 24.82 40.1534C23.8511 41.1223 22.537 41.6667 21.1667 41.6667C19.7964 41.6667 18.4822 41.1223 17.5133 40.1534C16.5443 39.1844 16 37.8703 16 36.5C16 35.1297 16.5443 33.8156 17.5133 32.8466C18.4822 31.8777 19.7964 31.3333 21.1667 31.3333C22.537 31.3333 23.8511 31.8777 24.82 32.8466C25.789 33.8156 26.3333 35.1297 26.3333 36.5ZM21.1667 26.1667C22.537 26.1667 23.8511 25.6223 24.82 24.6534C25.789 23.6844 26.3333 22.3703 26.3333 21C26.3333 19.6297 25.789 18.3156 24.82 17.3466C23.8511 16.3777 22.537 15.8333 21.1667 15.8333C19.7964 15.8333 18.4822 16.3777 17.5133 17.3466C16.5443 18.3156 16 19.6297 16 21C16 22.3703 16.5443 23.6844 17.5133 24.6534C18.4822 25.6223 19.7964 26.1667 21.1667 26.1667ZM57.3333 11.9583V15.8333H81.875C84.9581 15.8333 87.915 17.0581 90.0951 19.2382C92.2752 21.4183 93.5 24.3752 93.5 27.4583V97.2083C93.5 98.236 93.0917 99.2217 92.365 99.9484C91.6383 100.675 90.6527 101.083 89.625 101.083H74.125V86.875C74.125 86.1899 73.8528 85.5328 73.3684 85.0483C72.8839 84.5638 72.2268 84.2917 71.5417 84.2917H58.625C57.9399 84.2917 57.2828 84.5638 56.7983 85.0483C56.3138 85.5328 56.0417 86.1899 56.0417 86.875V101.083H4.375C3.34729 101.083 2.36166 100.675 1.63496 99.9484C0.908257 99.2217 0.5 98.236 0.5 97.2083V11.9583C0.5 8.87519 1.72477 5.91833 3.90488 3.73822C6.08499 1.55811 9.04186 0.333336 12.125 0.333336H45.7083C48.7915 0.333336 51.7483 1.55811 53.9284 3.73822C56.1086 5.91833 57.3333 8.87519 57.3333 11.9583ZM12.125 8.08334C11.0973 8.08334 10.1117 8.49159 9.38496 9.2183C8.65826 9.945 8.25 10.9306 8.25 11.9583V93.3333H36.6667V27.4583C36.6667 24.3752 37.8914 21.4183 40.0715 19.2382C42.2517 17.0581 45.2085 15.8333 48.2917 15.8333H49.5833V11.9583C49.5833 10.9306 49.1751 9.945 48.4484 9.2183C47.7217 8.49159 46.736 8.08334 45.7083 8.08334H12.125ZM78 67.5C78 66.1297 77.4557 64.8156 76.4867 63.8466C75.5178 62.8777 74.2036 62.3333 72.8333 62.3333C71.463 62.3333 70.1489 62.8777 69.1799 63.8466C68.211 64.8156 67.6667 66.1297 67.6667 67.5C67.6667 68.8703 68.211 70.1844 69.1799 71.1534C70.1489 72.1223 71.463 72.6667 72.8333 72.6667C74.2036 72.6667 75.5178 72.1223 76.4867 71.1534C77.4557 70.1844 78 68.8703 78 67.5ZM57.3333 72.6667C58.7036 72.6667 60.0178 72.1223 60.9867 71.1534C61.9557 70.1844 62.5 68.8703 62.5 67.5C62.5 66.1297 61.9557 64.8156 60.9867 63.8466C60.0178 62.8777 58.7036 62.3333 57.3333 62.3333C55.963 62.3333 54.6489 62.8777 53.6799 63.8466C52.711 64.8156 52.1667 66.1297 52.1667 67.5C52.1667 68.8703 52.711 70.1844 53.6799 71.1534C54.6489 72.1223 55.963 72.6667 57.3333 72.6667ZM78 52C78 50.6297 77.4557 49.3156 76.4867 48.3466C75.5178 47.3777 74.2036 46.8333 72.8333 46.8333C71.463 46.8333 70.1489 47.3777 69.1799 48.3466C68.211 49.3156 67.6667 50.6297 67.6667 52C67.6667 53.3703 68.211 54.6844 69.1799 55.6534C70.1489 56.6223 71.463 57.1667 72.8333 57.1667C74.2036 57.1667 75.5178 56.6223 76.4867 55.6534C77.4557 54.6844 78 53.3703 78 52ZM57.3333 57.1667C58.7036 57.1667 60.0178 56.6223 60.9867 55.6534C61.9557 54.6844 62.5 53.3703 62.5 52C62.5 50.6297 61.9557 49.3156 60.9867 48.3466C60.0178 47.3777 58.7036 46.8333 57.3333 46.8333C55.963 46.8333 54.6489 47.3777 53.6799 48.3466C52.711 49.3156 52.1667 50.6297 52.1667 52C52.1667 53.3703 52.711 54.6844 53.6799 55.6534C54.6489 56.6223 55.963 57.1667 57.3333 57.1667ZM78 36.5C78 35.1297 77.4557 33.8156 76.4867 32.8466C75.5178 31.8777 74.2036 31.3333 72.8333 31.3333C71.463 31.3333 70.1489 31.8777 69.1799 32.8466C68.211 33.8156 67.6667 35.1297 67.6667 36.5C67.6667 37.8703 68.211 39.1844 69.1799 40.1534C70.1489 41.1223 71.463 41.6667 72.8333 41.6667C74.2036 41.6667 75.5178 41.1223 76.4867 40.1534C77.4557 39.1844 78 37.8703 78 36.5ZM57.3333 41.6667C58.7036 41.6667 60.0178 41.1223 60.9867 40.1534C61.9557 39.1844 62.5 37.8703 62.5 36.5C62.5 35.1297 61.9557 33.8156 60.9867 32.8466C60.0178 31.8777 58.7036 31.3333 57.3333 31.3333C55.963 31.3333 54.6489 31.8777 53.6799 32.8466C52.711 33.8156 52.1667 35.1297 52.1667 36.5C52.1667 37.8703 52.711 39.1844 53.6799 40.1534C54.6489 41.1223 55.963 41.6667 57.3333 41.6667Z" fill="white"/>
</svg>
