<svg width="115" height="103" viewBox="0 0 115 103" fill="none" xmlns="http://www.w3.org/2000/svg">
<path d="M53.374 16.4227V12.9329L51.0338 16.4227H53.374Z" fill="white"/>
<path d="M90.407 28.7808H24.593C22.3759 28.7808 20.5284 26.9743 20.5284 24.7162V4.06462C20.5284 1.84755 22.3349 0 24.593 0H90.407C92.6241 0 94.4716 1.8065 94.4716 4.06462V24.7162C94.4306 26.9743 92.6241 28.7808 90.407 28.7808ZM86.2192 6.15851C86.2192 5.62496 86.0072 5.11325 85.63 4.73597C85.2527 4.35869 84.741 4.14673 84.2074 4.14673H84.1253C83.5918 4.14673 83.0801 4.35869 82.7028 4.73597C82.3255 5.11325 82.1135 5.62496 82.1135 6.15851V12.3581H73.9022V6.15851C73.9022 5.62496 73.6902 5.11325 73.3129 4.73597C72.9357 4.35869 72.424 4.14673 71.8904 4.14673H71.8083C71.2747 4.14673 70.763 4.35869 70.3857 4.73597C70.0085 5.11325 69.7965 5.62496 69.7965 6.15851V22.6633C69.7965 23.7719 70.6998 24.6751 71.8083 24.6751H71.8904C72.9989 24.6751 73.9022 23.7719 73.9022 22.6633V16.5048H82.1135V22.6633C82.1135 23.7719 83.0168 24.6751 84.1253 24.6751H84.2074C85.316 24.6751 86.2192 23.7719 86.2192 22.6633V6.15851ZM41.6316 24.6751C43.0686 24.6751 43.8076 23.9361 43.8076 22.4991C43.8076 21.0621 43.0275 20.5284 41.5905 20.5284H35.8836L39.2092 17.1207C40.523 15.8479 41.4263 14.6573 42.0011 13.5077C42.5348 12.3991 42.8222 11.2496 42.8222 10.0179C42.8222 8.08818 42.2064 6.6512 40.9747 5.62478C39.7429 4.59836 37.9365 4.10568 35.6373 4.10568C34.693 4.10568 33.7076 4.22885 32.7633 4.43413C31.819 4.63941 30.9157 5.00893 30.0125 5.46055C29.5198 5.70689 29.1503 6.0764 28.9861 6.48697C28.7808 6.89754 28.6987 7.06176 28.7808 7.47233C28.8629 7.8829 29.0271 8.25241 29.2735 8.58086C29.5198 8.90932 29.8893 9.1146 30.2999 9.23777C30.7105 9.36094 31.2031 9.27883 31.6958 9.03249C32.65 8.49469 33.7212 8.19867 34.8161 8.1703C36.6637 8.1703 37.6491 9.15566 37.6491 10.5926C37.6491 11.1674 37.4848 11.7422 37.1564 12.317C36.8279 12.8918 36.2942 13.5898 35.5552 14.3699L30.4641 19.7894C30.0536 20.1999 29.7662 20.6105 29.5198 21.0211C29.2735 21.4316 29.2324 21.7601 29.2324 22.2938C29.2324 23.0739 29.4377 23.6487 29.8072 24.0182C30.1767 24.4288 30.7926 24.593 31.6137 24.593H41.6316V24.6751ZM61.6262 18.5987C61.6492 18.3179 61.6108 18.0355 61.5137 17.771C61.4166 17.5065 61.2631 17.2664 61.0639 17.0671C60.8647 16.8679 60.6245 16.7144 60.36 16.6173C60.0955 16.5202 59.8131 16.4818 59.5323 16.5048H57.4384V6.24063C57.4376 6.20548 57.4306 6.17075 57.4179 6.13799C57.4097 6.10514 57.3974 6.0764 57.3974 6.03534C57.3974 5.91217 57.3563 5.74795 57.3152 5.62478C57.3152 5.51392 57.2783 5.44413 57.2413 5.37023C57.2249 5.32917 57.2044 5.29632 57.1921 5.25527C57.1633 5.16905 57.1141 5.10336 57.0607 5.02945C57.0352 4.99584 57.0106 4.96162 56.9868 4.92681C56.9126 4.81161 56.8146 4.71362 56.6994 4.63942L56.5762 4.51624C56.5557 4.49572 56.527 4.48751 56.4941 4.47519C56.464 4.46788 56.4359 4.45384 56.412 4.43413C56.2888 4.35202 56.1657 4.31096 56.0425 4.2699C55.9244 4.22314 55.7997 4.19542 55.673 4.18779C55.6378 4.18694 55.6031 4.17999 55.5703 4.16726C55.5375 4.15905 55.5088 4.14673 55.4677 4.14673C55.4266 4.14673 55.3938 4.15905 55.365 4.16726C55.3323 4.17999 55.2976 4.18694 55.2624 4.18779C55.0982 4.18779 54.975 4.22885 54.8518 4.2699C54.7287 4.31096 54.6055 4.35202 54.4823 4.43413C54.3961 4.46287 54.3304 4.51214 54.2565 4.56551C54.2229 4.59096 54.1887 4.61561 54.1539 4.63942C54.0307 4.72153 53.9486 4.80364 53.8665 4.92681L53.7433 5.04998L45.4909 17.367C45.4712 17.3909 45.4571 17.419 45.4498 17.4491C45.4425 17.4792 45.4285 17.5073 45.4088 17.5312C45.3267 17.6544 45.2856 17.7776 45.2446 17.9008C45.2035 18.0239 45.1624 18.1881 45.1624 18.3113C45.1604 18.33 45.1548 18.3481 45.146 18.3647C45.1298 18.3994 45.1214 18.4372 45.1214 18.4755C45.1214 18.5166 45.1296 18.5494 45.1419 18.5782C45.1546 18.611 45.1616 18.6457 45.1624 18.6808C45.1624 18.804 45.2035 18.9682 45.2446 19.0914C45.2446 19.2022 45.2815 19.272 45.3185 19.3459C45.3349 19.387 45.3554 19.4198 45.3677 19.4609C45.3965 19.5471 45.4457 19.6128 45.4991 19.6867C45.5246 19.7203 45.5492 19.7546 45.573 19.7894C45.6551 19.9125 45.7372 19.9946 45.8604 20.0768L45.9836 20.1999C46.0041 20.2205 46.0246 20.2205 46.0452 20.2205C46.0657 20.2205 46.0862 20.2205 46.1067 20.241C46.4352 20.4052 46.7637 20.5284 47.1332 20.5284H53.3327V22.6223C53.3327 23.8129 54.3181 24.7572 55.5088 24.6751C56.6173 24.593 57.4384 23.6487 57.4384 22.5402V20.5284H59.4913C60.5998 20.5284 61.5441 19.7072 61.6262 18.5987ZM32.8454 28.7808H36.9511V36.9511H78.0079V28.7808H82.1135V36.9511H111.839C113.563 36.9511 115 38.347 115 40.1125V50.2535C114.959 52.0189 113.563 53.4149 111.839 53.4149H110.853V102.683H4.10568V53.4149H3.16137C2.32292 53.4149 1.51882 53.0818 0.925944 52.4889C0.333072 51.896 0 51.0919 0 50.2535V40.1125C0 38.3881 1.39593 36.9511 3.16137 36.9511H32.8454V28.7808ZM98.5773 84.2485V71.8083C98.5773 71.2747 98.3653 70.763 97.9881 70.3857C97.6108 70.0085 97.0991 69.7965 96.5655 69.7965H63.5969C63.0634 69.7965 62.5517 70.0085 62.1744 70.3857C61.7971 70.763 61.5852 71.2747 61.5852 71.8083V84.2485C61.5852 85.357 62.4884 86.2603 63.5969 86.2603H96.5655C97.633 86.2603 98.5362 85.357 98.5773 84.2485ZM45.1624 67.99C45.1624 66.7583 44.136 65.7319 42.9043 65.7319H35.1446C33.9129 65.7319 32.8865 66.7583 32.8865 67.99V96.3192C32.8865 97.5509 33.9129 98.5773 35.1446 98.5773H42.9043C44.136 98.5773 45.1624 97.5509 45.1624 96.3192V67.99ZM28.7397 67.99C28.7397 66.7583 27.7133 65.7319 26.4816 65.7319H18.7219C17.4902 65.7319 16.4638 66.7583 16.4638 67.99V96.3192C16.4638 97.5509 17.4902 98.5773 18.7219 98.5773H26.4816C27.7133 98.5773 28.7397 97.5509 28.7397 96.3192V67.99ZM110.894 41.0568H4.10568V49.3092H110.894V41.0568Z" fill="white"/>
</svg>
