<svg width="268" height="146" viewBox="0 0 268 146" fill="none" xmlns="http://www.w3.org/2000/svg">
<g clip-path="url(#clip0_27_3244)">
<path d="M206.225 113.144V101.69H188.181H187.281H169.237V113.144C169.237 119.412 164.542 124.571 158.483 125.316V125.413H187.281H188.181H216.978V125.316C210.919 124.571 206.225 119.412 206.225 113.144Z" fill="#D8DBD7" stroke="#010200" stroke-width="3"/>
<path d="M267.311 103.189C267.311 106.504 264.623 109.194 261.311 109.194H114.151C110.843 109.194 108.151 106.504 108.151 103.189V21.9161C108.151 18.5914 110.843 15.906 114.151 15.906H261.311C264.623 15.906 267.311 18.5914 267.311 21.9161V103.189Z" fill="white" stroke="black" stroke-width="3" stroke-linecap="round" stroke-linejoin="round"/>
<path d="M267.311 87.9771C267.311 91.2925 264.623 93.9826 261.311 93.9826H114.151C110.843 93.9826 108.151 91.2925 108.151 87.9771V6.69531C108.151 3.37984 110.843 0.689766 114.151 0.689766H261.311C264.623 0.689766 267.311 3.37984 267.311 6.69531V87.9771Z" fill="white" stroke="black" stroke-width="3" stroke-linecap="round" stroke-linejoin="round"/>
<path d="M259.929 7.50003H115.538V86.7769H259.929V7.50003Z" fill="#0497FE"/>
<path d="M227.498 130.384C227.498 132.333 225.918 133.92 223.965 133.92H151.492C149.54 133.92 147.955 132.333 147.955 130.384V128.954C147.955 126.999 149.544 125.413 151.492 125.413H223.965C225.918 125.413 227.498 126.995 227.498 128.954V130.384Z" fill="white" stroke="black" stroke-width="3" stroke-linecap="round" stroke-linejoin="round"/>
<path d="M136.002 68.9442C136.002 68.9442 145.856 67.79 145.617 74.4439C145.341 82.1463 139.296 90.1199 133.531 92.0467C127.761 93.9734 125.014 95.3483 125.014 95.3483L120.343 87.646L136.002 68.9442Z" fill="white" stroke="#020500" stroke-width="3" stroke-linecap="round" stroke-linejoin="round"/>
<path d="M99.2725 77.672C98.2849 72.7287 94.215 68.8338 89.038 67.8728L70.3282 65.0861C68.6745 64.8286 67.3837 63.1226 67.3608 61.3476L66.9519 51.3782C47.7966 51.3782 68.3392 51.3782 48.9726 51.3782L48.5546 61.6971C48.4719 63.3663 47.2224 64.755 45.5687 65.0125L27.0978 67.8773C21.9208 68.843 17.8509 72.7379 16.8633 77.6766C16.8633 77.6766 29.6381 95.707 30.8692 95.7392C31.3423 95.7484 30.8692 96.1301 30.8692 96.6037V141.756C36.4183 141.756 79.001 141.756 84.5546 141.756C84.5546 93.7067 84.1688 95.7392 85.4228 95.7898C85.9235 95.8082 86.337 96.1899 86.3921 96.6911L99.2725 77.672Z" fill="white" stroke="#020500" stroke-width="3" stroke-linecap="round" stroke-linejoin="round"/>
<path d="M46.9462 60.3962L44.1992 64.8383L51.2963 77.792C51.8797 78.7899 52.3483 78.7301 52.8719 77.7323L57.9892 71.3312C47.2586 58.9293 47.7363 58.8143 46.9462 60.3962Z" fill="white" stroke="#020500" stroke-width="3" stroke-linecap="round" stroke-linejoin="round"/>
<path d="M68.9819 60.3957L71.7289 64.8378L64.6318 77.7916C64.0484 78.7894 63.5798 78.7296 63.0516 77.7318L57.9297 71.3308C68.7201 58.869 68.201 58.8323 68.9819 60.3957Z" fill="white" stroke="#020500" stroke-width="3" stroke-linecap="round" stroke-linejoin="round"/>
<path d="M101.101 78.6469C98.9279 71.5975 95.9742 68.5303 90.6732 67.7164L79.7496 66.1575L59.8318 93.6975C59.0876 95.1414 57.0251 95.1414 56.2809 93.6975L36.3722 66.1575L25.4487 67.7164C19.8169 68.5303 17.8692 69.7719 15.012 78.6469L1.36898 104.591C1.36898 104.591 -2.75148 118.524 9.24242 119.076C13.7258 119.283 30.8599 114.951 30.8599 114.951C30.915 114.478 30.8599 141.388 30.8599 141.857C30.8599 144.423 30.8691 145.306 34.3511 145.306H84.2789C84.9634 145.306 85.6524 145.513 85.6524 143.37V99.9974C85.6524 99.5283 86.2817 99.8226 86.3369 100.296L98.0643 116.524C103.209 122.102 107.311 125.73 116.503 115.664C120.757 111.006 126.062 104.637 131.056 96.7187L120.596 86.3078L107.977 101.671L101.101 78.6469Z" fill="#D8DBD7" stroke="#010200" stroke-width="3"/>
<path d="M54.5219 134.062H29.6614C28.1914 134.062 26.9971 132.867 26.9971 131.395V85.8894C26.9971 84.4179 28.1914 83.2223 29.6614 83.2223H61.9819C63.4565 83.2223 64.6462 84.4179 64.6462 85.8894V123.923L54.5219 134.062Z" fill="#3B94EC" stroke="#010200" stroke-width="3"/>
<path d="M54.5215 134.062V126.25C54.5215 124.967 55.5596 123.928 56.8413 123.928H64.6458L54.5215 134.062Z" fill="white" stroke="#020500" stroke-width="3" stroke-linecap="round" stroke-linejoin="round"/>
<path d="M58.9773 106.38H31.9072" stroke="#020500" stroke-width="3" stroke-linecap="round" stroke-linejoin="round"/>
<path d="M31.9072 112.703H52.6611" stroke="#020500" stroke-width="3" stroke-linecap="round" stroke-linejoin="round"/>
<path d="M58.9773 100.057H31.9072" stroke="#020500" stroke-width="3" stroke-linecap="round" stroke-linejoin="round"/>
<path d="M58.9773 93.7343H31.9072" stroke="#020500" stroke-width="3" stroke-linecap="round" stroke-linejoin="round"/>
<path d="M24.9063 104.605C24.9063 104.605 19.7017 103.225 13.041 103.455L24.9063 104.605Z" fill="white"/>
<path d="M24.9063 104.605C24.9063 104.605 19.7017 103.225 13.041 103.455" stroke="#020500" stroke-width="3" stroke-linecap="round" stroke-linejoin="round"/>
<path d="M80.7414 20.8493L78.1368 50.8264C77.558 59.43 73.9245 60.7084 71.3199 60.713C65.9086 60.7176 59.9324 57.6229 56.919 55.8111C51.0897 52.2979 51.2826 42.2365 51.2413 41.4226L49.5049 21.3689C73.0609 20.0859 66.1245 20.1595 80.7414 20.8493Z" fill="white" stroke="#020500" stroke-width="3" stroke-linecap="round" stroke-linejoin="round"/>
<path d="M79.8414 14.3885C83.8516 14.7196 83.9388 20.6653 79.4233 22.5875C70.0753 26.5743 68.2287 25.7834 68.2287 30.4922V39.2568C68.2287 40.4064 67.627 41.2893 65.9365 40.6869C64.8065 40.2868 64.0991 38.6222 63.7637 37.3944C63.7637 37.3944 62.8037 36.5989 61.3705 36.5989C57.3648 36.5989 57.3924 36.2448 56.9928 37.7071L54.7695 46.2142C53.6394 49.9389 51.3656 51.3644 49.9324 51.3828H48.8161C46.8225 46.4119 43.7999 38.636 42.6883 35.8355C39.188 27.0203 43.0604 9.36699 63.7454 12.5077L79.8414 14.3885Z" fill="#3B94EC" stroke="#010200" stroke-width="3"/>
<path d="M64.1492 38.6038V45.8831C64.1492 45.8831 63.9701 47.4649 62.6104 47.7454C60.0104 48.2789 59.1238 45.3313 57.438 41.1697C54.4797 33.8996 63.5337 33.3524 64.1492 38.6038Z" fill="white" stroke="#020500" stroke-width="3" stroke-linecap="round" stroke-linejoin="round"/>
<path d="M198.972 76.2097H159.251V34.318" stroke="black" stroke-width="3" stroke-linecap="round" stroke-linejoin="round"/>
<path d="M169.559 58.938H163.395V71.855H169.559V58.938Z" fill="#D8DBD7"/>
<path d="M179.151 62.3822H172.986V71.855H179.151V62.3822Z" fill="#D8DBD7"/>
<path d="M188.742 57.2136H182.577V71.855H188.742V57.2136Z" fill="#D8DBD7"/>
<path d="M198.338 52.0496H192.169V71.855H198.338V52.0496Z" fill="#D8DBD7"/>
<path d="M189.463 46.605L193.978 35.693L183.073 40.2086C188.103 45.2439 184.447 41.5836 189.463 46.605Z" fill="#D8DBD7" stroke="#010200" stroke-width="3"/>
<path d="M162.632 54.1878L170.721 46.09L177.042 52.4128L185.885 43.5609" stroke="black" stroke-width="3" stroke-linecap="round" stroke-linejoin="round"/>
<path d="M134.556 85.894C136.627 85.871 138.286 84.1236 138.263 81.9945L138.01 60.7636C137.987 59.1357 137.252 58.2023 135.796 58.2207L132.939 58.2528C131.092 58.2712 130.376 59.1863 130.394 60.8556L130.651 82.0911C130.674 84.2156 132.378 85.9216 134.45 85.894H134.556Z" fill="#D8DBD7" stroke="#010200" stroke-width="3"/>
<path d="M119.479 58.3356C127.592 66.2633 140.587 66.107 148.506 57.9861C156.426 49.8653 156.269 36.8564 148.157 28.9287C140.045 21.001 127.049 21.1574 119.13 29.2782C111.211 37.399 111.371 50.4079 119.479 58.3356Z" fill="white" stroke="black" stroke-width="3" stroke-linecap="round" stroke-linejoin="round"/>
<path d="M134 58.6345C142.273 58.5333 148.906 51.7369 148.805 43.4505C148.704 35.1642 141.915 28.5286 133.637 28.6298C125.355 28.731 118.731 35.5274 118.827 43.8092C118.933 52.1002 125.722 58.7357 134 58.6345Z" fill="#D8DBD7" stroke="#010200" stroke-width="3"/>
<path d="M132.768 34.4422C133.292 34.3824 133.705 33.9502 133.701 33.426C133.692 32.8879 133.228 32.4695 132.69 32.5247C127.325 33.0673 123.085 37.4312 122.695 42.8251C122.658 43.3494 123.099 43.7678 123.622 43.7586C124.164 43.7494 124.569 43.2896 124.619 42.7516C125.033 38.4152 128.441 34.9342 132.768 34.4422Z" fill="white"/>
<path d="M123.352 54.3672C129.273 60.152 138.763 60.0416 144.547 54.1097C150.325 48.1823 150.21 38.682 144.289 32.8925C138.364 27.1031 128.878 27.2181 123.094 33.1455C117.311 39.082 117.426 48.5778 123.352 54.3672Z" stroke="#020500" stroke-width="3" stroke-linecap="round" stroke-linejoin="round"/>
<path d="M121.795 87.085C121.795 87.085 123.09 79.6723 124.464 76.9225C125.837 74.1726 127.762 74.4485 131.607 74.1726C135.452 73.8967 140.28 73.8369 140.28 73.8369C140.28 73.8369 142.131 78.4215 137.744 79.2033C134.455 79.7873 129.958 79.6723 129.958 79.6723C129.958 79.6723 132.186 83.5948 129.944 87.9863" fill="white"/>
<path d="M121.795 87.085C121.795 87.085 123.09 79.6723 124.464 76.9225C125.837 74.1726 127.762 74.4485 131.607 74.1726C135.452 73.8967 140.28 73.8369 140.28 73.8369C140.28 73.8369 142.131 78.4215 137.744 79.2033C134.455 79.7873 129.958 79.6723 129.958 79.6723C129.958 79.6723 132.186 83.5948 129.944 87.9863" stroke="#020500" stroke-width="3" stroke-linecap="round" stroke-linejoin="round"/>
<path d="M223.745 61.9822C223.745 57.6413 220.231 54.1189 215.89 54.1189C211.554 54.1189 208.035 57.6413 208.035 61.9822C208.035 64.3228 209.06 66.4243 210.676 67.8636L215.89 73.0828L221.104 67.8636C222.721 66.4197 223.745 64.3228 223.745 61.9822Z" fill="white" stroke="#020500" stroke-width="3" stroke-linecap="round" stroke-linejoin="round"/>
<path d="M220.645 61.7385C220.645 64.3688 218.513 66.4978 215.886 66.4978C213.258 66.4978 211.127 64.3642 211.127 61.7385C211.127 59.1082 213.258 56.9745 215.886 56.9745C218.513 56.9745 220.645 59.1082 220.645 61.7385Z" fill="white" stroke="#020500" stroke-width="3" stroke-linecap="round" stroke-linejoin="round"/>
<path d="M233.139 36.3092L237.976 50.9965C240.231 50.2654 242.358 49.01 244.15 47.212C245.303 46.0578 246.235 44.7657 246.947 43.3907L233.139 36.3092Z" fill="#D8DBD7" stroke="#010200" stroke-width="3" stroke-linecap="round" stroke-linejoin="round"/>
<path d="M218.012 33.2558C217.897 34.6767 217.709 34.2169 217.718 36.3092C217.732 40.2546 219.239 44.2001 222.247 47.212L233.139 36.3092V20.7573C225.716 20.7849 219.422 26.0547 218.012 33.2558Z" fill="#D8DBD7" stroke="#010200" stroke-width="3" stroke-linecap="round" stroke-linejoin="round"/>
<path d="M233.139 36.3092L222.247 47.212H222.252C226.505 51.4702 232.615 52.7301 237.976 50.9965L233.139 36.3092Z" fill="#D8DBD7" stroke="#010200" stroke-width="3" stroke-linecap="round" stroke-linejoin="round"/>
<path d="M240.231 22.4311L240.208 22.4357C237.994 21.3091 235.564 20.7527 233.139 20.7619V36.3138L246.965 43.3953C250.902 35.7895 247.939 26.349 240.231 22.4311Z" fill="#D8DBD7" stroke="#010200" stroke-width="3" stroke-linecap="round" stroke-linejoin="round"/>
<path d="M22.0766 104.453L27.1984 101.4C27.1984 101.4 28.5168 99.8088 30.3956 100.117C32.9818 100.545 36.1514 100.618 36.1514 104.839C36.1514 109.401 36.11 113.664 36.0917 114.248C35.9998 117.182 30.7815 117.09 29.679 115.255C28.5811 113.42 26.6518 117.251 23.9048 116.331C21.167 115.416 22.0766 104.453 22.0766 104.453Z" fill="white" stroke="#020500" stroke-width="3" stroke-linecap="round" stroke-linejoin="round"/>
<path d="M179.716 30.4968L175.935 26.7122L174.346 28.3079L171.043 25.0016L166.252 29.7978" stroke="black" stroke-width="3" stroke-linecap="round" stroke-linejoin="round"/>
<path d="M175.967 24.6797C176.914 24.6797 177.681 23.9118 177.681 22.9645C177.681 22.0173 176.914 21.2493 175.967 21.2493C175.021 21.2493 174.254 22.0173 174.254 22.9645C174.249 23.9118 175.021 24.6797 175.967 24.6797Z" fill="#3381E0"/>
<path d="M167.093 33.0719C166.629 33.0719 166.252 32.6948 166.252 32.2304V20.4354C166.252 19.971 166.629 19.5939 167.093 19.5939H178.88C179.344 19.5939 179.72 19.971 179.72 20.4354V32.235C179.72 32.6994 179.344 33.0765 178.88 33.0765H167.093V33.0719Z" stroke="black" stroke-width="3" stroke-linecap="round" stroke-linejoin="round"/>
</g>
<defs>
<clipPath id="clip0_27_3244">
<rect width="268" height="146" fill="white"/>
</clipPath>
</defs>
</svg>
